# xmcd CD database file
#
# Track frame offsets:
#	150
#	13222
#	25782
#	37635
#	52092
#	64485
#	76915
#	89035
#	101750
#	114512
#	127225
#	141152
#	154377
#	167455
#	179467
#	192612
#	204890
#	217607
#	230142
#	242022
#
# Disc length: 3385 seconds
#
# Revision: 0
# Processed by: cddbd v1.5.1PL0 Copyright (c) Steve Scherf et al.
# Submitted via: CDex 1.51
#
DISCID=1d0d3714
DTITLE=Duke Henderson - Get Your Kicks
DYEAR=1945
DGENRE=Blues
TTITLE0=Get Your Kicks
TTITLE1=Wiggle Wiggle Boogie
TTITLE2=Don't Slam the Door
TTITLE3=Don't Forget I'm a Married Man
TTITLE4=Let's get Vootin'
TTITLE5=S.H. Blues
TTITLE6=Don't Keep Me Waiting
TTITLE7=H.D. Blues  (Hot Dog Blues)
TTITLE8=Oo Wee, Baby!  Oo Wee !
TTITLE9=Lottery Blues
TTITLE10=Blues in the Background
TTITLE11=Boogie Man Blues
TTITLE12=Don't Fall in Love with Me, Baby
TTITLE13=Fool Hearted Woman
TTITLE14=Not Worth a Dime
TTITLE15=Mama Bear Blues
TTITLE16=Woman's Blues, part 1
TTITLE17=Woman's Blues, part 2
TTITLE18=Homecoming Blues
TTITLE19=Blues in the Background  (alternate)
EXTD=YEAR: 1945
EXTT0=
EXTT1=
EXTT2=
EXTT3=
EXTT4=
EXTT5=
EXTT6=
EXTT7=
EXTT8=
EXTT9=
EXTT10=
EXTT11=
EXTT12=
EXTT13=
EXTT14=
EXTT15=
EXTT16=
EXTT17=
EXTT18=
EXTT19=
PLAYORDER=
